<?xml version="1.0" encoding="UTF-8"?>
<!DOCTYPE svg PUBLIC "-//W3C//DTD SVG 1.1//EN" "http://www.w3.org/Graphics/SVG/1.1/DTD/svg11.dtd">
<svg xmlns="http://www.w3.org/2000/svg" version="1.1" width="512px" height="512px" style="shape-rendering:geometricPrecision; text-rendering:geometricPrecision; image-rendering:optimizeQuality; fill-rule:evenodd; clip-rule:evenodd" xmlns:xlink="http://www.w3.org/1999/xlink">
<g><path style="opacity:0.984" fill="#0caf7a" d="M 238.5,78.5 C 305.266,80.2879 356.766,108.955 393,164.5C 403.429,183.124 411.095,202.791 416,223.5C 420.048,218.573 424.215,213.74 428.5,209C 439.22,204.86 445.887,208.36 448.5,219.5C 447.825,222.691 446.658,225.691 445,228.5C 434.167,241.333 423.333,254.167 412.5,267C 407.833,269 403.167,269 398.5,267C 386.456,256.621 374.123,246.621 361.5,237C 354.894,229.928 354.894,222.928 361.5,216C 366.5,212.667 371.5,212.667 376.5,216C 380.667,219.5 384.833,223 389,226.5C 380.335,183.013 357.168,149.513 319.5,126C 278.168,102.269 234.835,97.9356 189.5,113C 135.695,134.136 102.862,172.969 91,229.5C 82.3987,295.442 105.232,347.276 159.5,385C 186.595,401.108 215.928,409.441 247.5,410C 253.863,415.213 255.029,421.379 251,428.5C 246.817,432.894 241.65,434.56 235.5,433.5C 172.119,429.742 123.286,401.408 89,348.5C 55.3887,287.67 55.0553,226.67 88,165.5C 123.21,110.806 173.376,81.8064 238.5,78.5 Z"/></g>
<g><path style="opacity:0.982" fill="#8bcc3e" d="M 225.5,295.5 C 219.571,291.076 214.071,286.076 209,280.5C 210.03,274.547 211.197,268.547 212.5,262.5C 212.364,257.261 209.697,255.095 204.5,256C 200.948,259.327 199.114,263.494 199,268.5C 197.853,269.458 196.853,269.125 196,267.5C 195.963,261.14 197.13,254.973 199.5,249C 198.621,242.79 195.287,240.957 189.5,243.5C 186.934,247.059 185.268,251.059 184.5,255.5C 183.522,255.023 182.689,254.357 182,253.5C 182.52,247.097 183.686,240.764 185.5,234.5C 184.077,228.957 180.743,227.457 175.5,230C 173.527,233.701 171.86,237.534 170.5,241.5C 168.016,239.517 165.683,237.35 163.5,235C 156.667,233.833 153.833,236.667 155,243.5C 157.5,246 160,248.5 162.5,251C 158.877,252.156 155.211,253.156 151.5,254C 148.165,256.679 147.665,259.845 150,263.5C 151.126,264.944 152.626,265.61 154.5,265.5C 160.764,263.686 167.097,262.52 173.5,262C 174.357,262.689 175.023,263.522 175.5,264.5C 171.059,265.268 167.059,266.934 163.5,269.5C 161.177,274.631 162.677,277.965 168,279.5C 174.362,277.281 180.862,276.114 187.5,276C 188.167,276.667 188.833,277.333 189.5,278C 184.395,279.028 179.895,281.195 176,284.5C 175.095,289.697 177.261,292.364 182.5,292.5C 188.547,291.197 194.547,290.03 200.5,289C 206.098,294.091 211.098,299.591 215.5,305.5C 204.697,308.436 194.031,307.936 183.5,304C 156.484,292.151 137.984,272.317 128,244.5C 122.013,217.835 132.513,205.335 159.5,207C 180.522,212.26 197.688,223.426 211,240.5C 222.947,254.674 228.28,271.008 227,289.5C 226.187,291.436 225.687,293.436 225.5,295.5 Z"/></g>
<g><path style="opacity:0.977" fill="#8bcb3e" d="M 255.5,302.5 C 259.843,297.324 264.676,292.657 270,288.5C 275.132,290.616 280.465,291.95 286,292.5C 292.097,292.471 294.097,289.471 292,283.5C 288.605,281.02 284.772,279.52 280.5,279C 279.542,277.853 279.875,276.853 281.5,276C 287.781,276.275 293.948,277.442 300,279.5C 306.21,278.621 308.043,275.287 305.5,269.5C 301.645,267.533 297.645,265.867 293.5,264.5C 293.977,263.522 294.643,262.689 295.5,262C 301.628,262.902 307.795,264.068 314,265.5C 319.897,264.374 321.563,261.041 319,255.5C 315.096,253.475 310.929,251.975 306.5,251C 309,248.5 311.5,246 314,243.5C 315.167,236.667 312.333,233.833 305.5,235C 303.317,237.35 300.984,239.517 298.5,241.5C 296.918,237.572 295.251,233.739 293.5,230C 288.257,227.457 284.923,228.957 283.5,234.5C 285.424,240.749 286.591,247.082 287,253.5C 286.311,254.357 285.478,255.023 284.5,255.5C 283.608,251.153 281.942,247.153 279.5,243.5C 274.046,241.065 270.712,242.732 269.5,248.5C 271.797,254.675 272.964,261.008 273,267.5C 272.147,269.125 271.147,269.458 270,268.5C 269.759,263.535 267.925,259.369 264.5,256C 259.303,255.095 256.636,257.261 256.5,262.5C 257.318,268.121 258.651,273.621 260.5,279C 256.343,284.324 251.676,289.157 246.5,293.5C 243,257.659 257.333,231.826 289.5,216C 304.518,210.088 319.851,209.088 335.5,213C 343.051,246.691 332.718,273.358 304.5,293C 289.285,301.959 272.952,305.126 255.5,302.5 Z"/></g>
<g><path style="opacity:0.998" fill="#7dbd3e" d="M 225.5,295.5 C 228.146,298.812 231.146,301.812 234.5,304.5C 238.52,300.811 242.52,297.145 246.5,293.5C 251.676,289.157 256.343,284.324 260.5,279C 258.651,273.621 257.318,268.121 256.5,262.5C 256.636,257.261 259.303,255.095 264.5,256C 267.925,259.369 269.759,263.535 270,268.5C 271.147,269.458 272.147,269.125 273,267.5C 272.964,261.008 271.797,254.675 269.5,248.5C 270.712,242.732 274.046,241.065 279.5,243.5C 281.942,247.153 283.608,251.153 284.5,255.5C 285.478,255.023 286.311,254.357 287,253.5C 286.591,247.082 285.424,240.749 283.5,234.5C 284.923,228.957 288.257,227.457 293.5,230C 295.251,233.739 296.918,237.572 298.5,241.5C 300.984,239.517 303.317,237.35 305.5,235C 312.333,233.833 315.167,236.667 314,243.5C 311.5,246 309,248.5 306.5,251C 310.929,251.975 315.096,253.475 319,255.5C 321.563,261.041 319.897,264.374 314,265.5C 307.795,264.068 301.628,262.902 295.5,262C 294.643,262.689 293.977,263.522 293.5,264.5C 297.645,265.867 301.645,267.533 305.5,269.5C 308.043,275.287 306.21,278.621 300,279.5C 293.948,277.442 287.781,276.275 281.5,276C 279.875,276.853 279.542,277.853 280.5,279C 284.772,279.52 288.605,281.02 292,283.5C 294.097,289.471 292.097,292.471 286,292.5C 280.465,291.95 275.132,290.616 270,288.5C 264.676,292.657 259.843,297.324 255.5,302.5C 249.415,309.922 242.415,316.256 234.5,321.5C 233.062,321.281 231.729,320.781 230.5,320C 225.631,314.963 220.631,310.13 215.5,305.5C 211.098,299.591 206.098,294.091 200.5,289C 194.547,290.03 188.547,291.197 182.5,292.5C 177.261,292.364 175.095,289.697 176,284.5C 179.895,281.195 184.395,279.028 189.5,278C 188.833,277.333 188.167,276.667 187.5,276C 180.862,276.114 174.362,277.281 168,279.5C 162.677,277.965 161.177,274.631 163.5,269.5C 167.059,266.934 171.059,265.268 175.5,264.5C 175.023,263.522 174.357,262.689 173.5,262C 167.097,262.52 160.764,263.686 154.5,265.5C 152.626,265.61 151.126,264.944 150,263.5C 147.665,259.845 148.165,256.679 151.5,254C 155.211,253.156 158.877,252.156 162.5,251C 160,248.5 157.5,246 155,243.5C 153.833,236.667 156.667,233.833 163.5,235C 165.683,237.35 168.016,239.517 170.5,241.5C 171.86,237.534 173.527,233.701 175.5,230C 180.743,227.457 184.077,228.957 185.5,234.5C 183.686,240.764 182.52,247.097 182,253.5C 182.689,254.357 183.522,255.023 184.5,255.5C 185.268,251.059 186.934,247.059 189.5,243.5C 195.287,240.957 198.621,242.79 199.5,249C 197.13,254.973 195.963,261.14 196,267.5C 196.853,269.125 197.853,269.458 199,268.5C 199.114,263.494 200.948,259.327 204.5,256C 209.697,255.095 212.364,257.261 212.5,262.5C 211.197,268.547 210.03,274.547 209,280.5C 214.071,286.076 219.571,291.076 225.5,295.5 Z"/></g>
<g><path style="opacity:0.968" fill="#0caf7a" d="M 399.5,285.5 C 404.508,285.168 407.508,287.502 408.5,292.5C 397.081,340.731 370.414,377.898 328.5,404C 313.378,412.562 297.378,418.895 280.5,423C 272.667,424.5 269.5,421.333 271,413.5C 271.833,412.667 272.667,411.833 273.5,411C 337.592,394.574 378.092,354.407 395,290.5C 396.025,288.313 397.525,286.646 399.5,285.5 Z"/></g>
</svg>
